<mxfile host="Electron" agent="Mozilla/5.0 (Macintosh; Intel Mac OS X 10_15_7) AppleWebKit/537.36 (KHTML, like Gecko) draw.io/26.0.4 Chrome/128.0.6613.186 Electron/32.2.5 Safari/537.36" version="26.0.4">
  <diagram id="prtHgNgQTEPvFCAcTncT" name="Page-1">
    <mxGraphModel dx="530" dy="379" grid="1" gridSize="10" guides="1" tooltips="1" connect="1" arrows="1" fold="1" page="1" pageScale="1" pageWidth="827" pageHeight="1169" math="0" shadow="0">
      <root>
        <mxCell id="0" />
        <mxCell id="1" parent="0" />
        <mxCell id="dNxyNK7c78bLwvsdeMH5-19" value="Pool" style="swimlane;html=1;childLayout=stackLayout;resizeParent=1;resizeParentMax=0;horizontal=0;startSize=20;horizontalStack=0;" parent="1" vertex="1">
          <mxGeometry x="120" y="120" width="1240" height="360" as="geometry" />
        </mxCell>
        <mxCell id="dNxyNK7c78bLwvsdeMH5-27" value="" style="edgeStyle=orthogonalEdgeStyle;rounded=0;orthogonalLoop=1;jettySize=auto;html=1;endArrow=none;endFill=0;" parent="dNxyNK7c78bLwvsdeMH5-19" source="dNxyNK7c78bLwvsdeMH5-24" target="dNxyNK7c78bLwvsdeMH5-26" edge="1">
          <mxGeometry relative="1" as="geometry" />
        </mxCell>
        <mxCell id="dNxyNK7c78bLwvsdeMH5-20" value="User" style="swimlane;html=1;startSize=20;horizontal=0;" parent="dNxyNK7c78bLwvsdeMH5-19" vertex="1">
          <mxGeometry x="20" width="1220" height="120" as="geometry" />
        </mxCell>
        <mxCell id="dNxyNK7c78bLwvsdeMH5-25" value="" style="edgeStyle=orthogonalEdgeStyle;rounded=0;orthogonalLoop=1;jettySize=auto;html=1;" parent="dNxyNK7c78bLwvsdeMH5-20" source="dNxyNK7c78bLwvsdeMH5-23" target="dNxyNK7c78bLwvsdeMH5-24" edge="1">
          <mxGeometry relative="1" as="geometry" />
        </mxCell>
        <mxCell id="dNxyNK7c78bLwvsdeMH5-23" value="Start" style="ellipse;whiteSpace=wrap;html=1;" parent="dNxyNK7c78bLwvsdeMH5-20" vertex="1">
          <mxGeometry x="40" y="40" width="40" height="40" as="geometry" />
        </mxCell>
        <mxCell id="dNxyNK7c78bLwvsdeMH5-24" value="&lt;font style=&quot;font-size: 11px; color: rgb(255, 255, 255);&quot;&gt;User Uploads&lt;/font&gt;&lt;div&gt;&lt;font style=&quot;font-size: 11px; color: rgb(255, 255, 255);&quot;&gt;Code Package&lt;/font&gt;&lt;/div&gt;&lt;div&gt;&lt;font style=&quot;font-size: 11px; color: rgb(255, 255, 255);&quot;&gt;(zip)&lt;/font&gt;&lt;/div&gt;" style="rounded=0;whiteSpace=wrap;html=1;fontFamily=Helvetica;fontSize=12;fontColor=#000000;align=center;" parent="dNxyNK7c78bLwvsdeMH5-20" vertex="1">
          <mxGeometry x="120" y="30" width="80" height="60" as="geometry" />
        </mxCell>
        <mxCell id="_FdeFcUcCdS8H701f3TN-19" value="&lt;font color=&quot;#ffffff&quot;&gt;Output in HTTP Response&lt;/font&gt;" style="rounded=0;whiteSpace=wrap;html=1;fontFamily=Helvetica;fontSize=12;fontColor=#000000;align=center;" vertex="1" parent="dNxyNK7c78bLwvsdeMH5-20">
          <mxGeometry x="1000" y="30" width="80" height="60" as="geometry" />
        </mxCell>
        <mxCell id="_FdeFcUcCdS8H701f3TN-26" value="" style="edgeStyle=orthogonalEdgeStyle;rounded=0;orthogonalLoop=1;jettySize=auto;html=1;entryX=0;entryY=0.5;entryDx=0;entryDy=0;" edge="1" parent="dNxyNK7c78bLwvsdeMH5-20" source="_FdeFcUcCdS8H701f3TN-24" target="_FdeFcUcCdS8H701f3TN-27">
          <mxGeometry relative="1" as="geometry">
            <mxPoint x="750" y="60" as="targetPoint" />
          </mxGeometry>
        </mxCell>
        <mxCell id="_FdeFcUcCdS8H701f3TN-24" value="Start" style="ellipse;whiteSpace=wrap;html=1;" vertex="1" parent="dNxyNK7c78bLwvsdeMH5-20">
          <mxGeometry x="660" y="40" width="40" height="40" as="geometry" />
        </mxCell>
        <mxCell id="_FdeFcUcCdS8H701f3TN-28" style="edgeStyle=orthogonalEdgeStyle;rounded=0;orthogonalLoop=1;jettySize=auto;html=1;" edge="1" parent="dNxyNK7c78bLwvsdeMH5-20" source="_FdeFcUcCdS8H701f3TN-27">
          <mxGeometry relative="1" as="geometry">
            <mxPoint x="790" y="270" as="targetPoint" />
          </mxGeometry>
        </mxCell>
        <mxCell id="_FdeFcUcCdS8H701f3TN-27" value="&lt;font color=&quot;#ffffff&quot;&gt;User Callout to execute the function&lt;/font&gt;" style="rounded=0;whiteSpace=wrap;html=1;fontFamily=Helvetica;fontSize=12;fontColor=#000000;align=center;" vertex="1" parent="dNxyNK7c78bLwvsdeMH5-20">
          <mxGeometry x="750" y="30" width="80" height="60" as="geometry" />
        </mxCell>
        <mxCell id="_FdeFcUcCdS8H701f3TN-29" value="2." style="text;html=1;align=center;verticalAlign=middle;whiteSpace=wrap;rounded=0;" vertex="1" parent="dNxyNK7c78bLwvsdeMH5-20">
          <mxGeometry x="627" y="20" width="60" height="30" as="geometry" />
        </mxCell>
        <mxCell id="_FdeFcUcCdS8H701f3TN-30" value="1." style="text;html=1;align=center;verticalAlign=middle;whiteSpace=wrap;rounded=0;" vertex="1" parent="dNxyNK7c78bLwvsdeMH5-20">
          <mxGeometry x="10" y="20" width="60" height="30" as="geometry" />
        </mxCell>
        <mxCell id="dNxyNK7c78bLwvsdeMH5-21" value="Go HTTP Server" style="swimlane;html=1;startSize=20;horizontal=0;" parent="dNxyNK7c78bLwvsdeMH5-19" vertex="1">
          <mxGeometry x="20" y="120" width="1220" height="120" as="geometry" />
        </mxCell>
        <mxCell id="_FdeFcUcCdS8H701f3TN-2" value="" style="edgeStyle=orthogonalEdgeStyle;rounded=0;orthogonalLoop=1;jettySize=auto;html=1;" edge="1" parent="dNxyNK7c78bLwvsdeMH5-21" source="dNxyNK7c78bLwvsdeMH5-26" target="_FdeFcUcCdS8H701f3TN-1">
          <mxGeometry relative="1" as="geometry" />
        </mxCell>
        <mxCell id="dNxyNK7c78bLwvsdeMH5-26" value="&lt;font style=&quot;color: rgb(255, 255, 255);&quot;&gt;Extract Zip to Temp Dir&lt;/font&gt;" style="rounded=0;whiteSpace=wrap;html=1;fontFamily=Helvetica;fontSize=12;fontColor=#000000;align=center;" parent="dNxyNK7c78bLwvsdeMH5-21" vertex="1">
          <mxGeometry x="120" y="30" width="80" height="60" as="geometry" />
        </mxCell>
        <mxCell id="_FdeFcUcCdS8H701f3TN-6" value="" style="edgeStyle=orthogonalEdgeStyle;rounded=0;orthogonalLoop=1;jettySize=auto;html=1;" edge="1" parent="dNxyNK7c78bLwvsdeMH5-21" source="_FdeFcUcCdS8H701f3TN-1" target="_FdeFcUcCdS8H701f3TN-5">
          <mxGeometry relative="1" as="geometry" />
        </mxCell>
        <mxCell id="_FdeFcUcCdS8H701f3TN-1" value="&lt;font style=&quot;color: rgb(255, 255, 255);&quot;&gt;Detect Lang&lt;/font&gt;" style="rounded=0;whiteSpace=wrap;html=1;fontFamily=Helvetica;fontSize=12;fontColor=#000000;align=center;" vertex="1" parent="dNxyNK7c78bLwvsdeMH5-21">
          <mxGeometry x="250" y="30" width="80" height="60" as="geometry" />
        </mxCell>
        <mxCell id="_FdeFcUcCdS8H701f3TN-5" value="&lt;font style=&quot;color: rgb(255, 255, 255);&quot;&gt;Create Dockerfile&lt;/font&gt;" style="rounded=0;whiteSpace=wrap;html=1;fontFamily=Helvetica;fontSize=12;fontColor=#000000;align=center;" vertex="1" parent="dNxyNK7c78bLwvsdeMH5-21">
          <mxGeometry x="380" y="30" width="80" height="60" as="geometry" />
        </mxCell>
        <mxCell id="_FdeFcUcCdS8H701f3TN-17" value="&lt;font color=&quot;#ffffff&quot;&gt;Output&lt;/font&gt;" style="rounded=0;whiteSpace=wrap;html=1;fontFamily=Helvetica;fontSize=12;fontColor=#000000;align=center;" vertex="1" parent="dNxyNK7c78bLwvsdeMH5-21">
          <mxGeometry x="1000" y="30" width="80" height="60" as="geometry" />
        </mxCell>
        <mxCell id="dNxyNK7c78bLwvsdeMH5-22" value="Docker" style="swimlane;html=1;startSize=20;horizontal=0;" parent="dNxyNK7c78bLwvsdeMH5-19" vertex="1">
          <mxGeometry x="20" y="240" width="1220" height="120" as="geometry" />
        </mxCell>
        <mxCell id="_FdeFcUcCdS8H701f3TN-12" value="&lt;font color=&quot;#ffffff&quot;&gt;Run Container&lt;/font&gt;" style="rounded=0;whiteSpace=wrap;html=1;fontFamily=Helvetica;fontSize=12;fontColor=#000000;align=center;" vertex="1" parent="dNxyNK7c78bLwvsdeMH5-22">
          <mxGeometry x="750" y="30" width="80" height="60" as="geometry" />
        </mxCell>
        <mxCell id="_FdeFcUcCdS8H701f3TN-14" value="&lt;font color=&quot;#ffffff&quot;&gt;Execute Function&lt;/font&gt;" style="rounded=0;whiteSpace=wrap;html=1;fontFamily=Helvetica;fontSize=12;fontColor=#000000;align=center;" vertex="1" parent="dNxyNK7c78bLwvsdeMH5-22">
          <mxGeometry x="880" y="30" width="80" height="60" as="geometry" />
        </mxCell>
        <mxCell id="_FdeFcUcCdS8H701f3TN-15" value="" style="edgeStyle=orthogonalEdgeStyle;rounded=0;orthogonalLoop=1;jettySize=auto;html=1;" edge="1" parent="dNxyNK7c78bLwvsdeMH5-22" source="_FdeFcUcCdS8H701f3TN-12" target="_FdeFcUcCdS8H701f3TN-14">
          <mxGeometry relative="1" as="geometry" />
        </mxCell>
        <mxCell id="_FdeFcUcCdS8H701f3TN-20" value="" style="edgeStyle=orthogonalEdgeStyle;rounded=0;orthogonalLoop=1;jettySize=auto;html=1;" edge="1" parent="dNxyNK7c78bLwvsdeMH5-19" source="_FdeFcUcCdS8H701f3TN-17" target="_FdeFcUcCdS8H701f3TN-19">
          <mxGeometry relative="1" as="geometry" />
        </mxCell>
        <mxCell id="_FdeFcUcCdS8H701f3TN-18" value="" style="edgeStyle=orthogonalEdgeStyle;rounded=0;orthogonalLoop=1;jettySize=auto;html=1;" edge="1" parent="dNxyNK7c78bLwvsdeMH5-19" source="_FdeFcUcCdS8H701f3TN-14" target="_FdeFcUcCdS8H701f3TN-17">
          <mxGeometry relative="1" as="geometry" />
        </mxCell>
        <mxCell id="_FdeFcUcCdS8H701f3TN-11" value="" style="edgeStyle=orthogonalEdgeStyle;rounded=0;orthogonalLoop=1;jettySize=auto;html=1;" edge="1" parent="1" source="_FdeFcUcCdS8H701f3TN-8" target="_FdeFcUcCdS8H701f3TN-10">
          <mxGeometry relative="1" as="geometry" />
        </mxCell>
        <mxCell id="_FdeFcUcCdS8H701f3TN-8" value="&lt;font style=&quot;color: rgb(255, 255, 255);&quot;&gt;Build Docker Image&lt;/font&gt;" style="rounded=0;whiteSpace=wrap;html=1;fontFamily=Helvetica;fontSize=12;fontColor=#000000;align=center;" vertex="1" parent="1">
          <mxGeometry x="650" y="270" width="80" height="60" as="geometry" />
        </mxCell>
        <mxCell id="_FdeFcUcCdS8H701f3TN-9" value="" style="edgeStyle=orthogonalEdgeStyle;rounded=0;orthogonalLoop=1;jettySize=auto;html=1;" edge="1" parent="1" source="_FdeFcUcCdS8H701f3TN-5" target="_FdeFcUcCdS8H701f3TN-8">
          <mxGeometry relative="1" as="geometry" />
        </mxCell>
        <mxCell id="_FdeFcUcCdS8H701f3TN-13" value="" style="edgeStyle=orthogonalEdgeStyle;rounded=0;orthogonalLoop=1;jettySize=auto;html=1;" edge="1" parent="1" source="_FdeFcUcCdS8H701f3TN-10" target="_FdeFcUcCdS8H701f3TN-12">
          <mxGeometry relative="1" as="geometry" />
        </mxCell>
        <mxCell id="_FdeFcUcCdS8H701f3TN-10" value="&lt;font color=&quot;#ffffff&quot;&gt;Save the Image ID&lt;/font&gt;" style="rounded=0;whiteSpace=wrap;html=1;fontFamily=Helvetica;fontSize=12;fontColor=#000000;align=center;" vertex="1" parent="1">
          <mxGeometry x="780" y="270" width="80" height="60" as="geometry" />
        </mxCell>
        <mxCell id="_FdeFcUcCdS8H701f3TN-21" value="&lt;font style=&quot;color: rgb(255, 255, 255);&quot;&gt;Stop&lt;/font&gt;" style="ellipse;whiteSpace=wrap;html=1;fontColor=#000000;rounded=0;" vertex="1" parent="1">
          <mxGeometry x="1280" y="160" width="40" height="40" as="geometry" />
        </mxCell>
        <mxCell id="_FdeFcUcCdS8H701f3TN-23" value="" style="edgeStyle=orthogonalEdgeStyle;rounded=0;orthogonalLoop=1;jettySize=auto;html=1;" edge="1" parent="1" source="_FdeFcUcCdS8H701f3TN-19" target="_FdeFcUcCdS8H701f3TN-21">
          <mxGeometry relative="1" as="geometry" />
        </mxCell>
      </root>
    </mxGraphModel>
  </diagram>
</mxfile>
